<svg xmlns="http://www.w3.org/2000/svg" xmlns:xlink="http://www.w3.org/1999/xlink" version="1.1" x="0px" y="0px" viewBox="0 0 100 125" enable-background="new 0 0 100 100" xml:space="preserve"><path d="M81.977,39.093l-7.049-4.07c-0.324-1.59-2.388-2.779-5.151-2.974l-7.872-4.544c-0.355-1.74-2.791-3.004-5.95-3.004  c-3.421,0-5.999,1.481-5.999,3.445v0.726l-5.238,3.024c-0.446-0.057-0.912-0.09-1.398-0.09c-3.42,0-5.999,1.481-5.999,3.445v0.916  l-4.972,2.87c-0.525-0.081-1.081-0.127-1.664-0.127c-3.42,0-6,1.481-6,3.445v1.105l-6.66,3.846c-0.309,0.179-0.5,0.509-0.5,0.866  v12.36c0,0.357,0.191,0.688,0.5,0.866l24.535,14.165c0.155,0.089,0.328,0.134,0.5,0.134c0,0,0,0,0.001,0  c0.173,0,0.345-0.045,0.5-0.134l38.417-22.18c0.31-0.179,0.5-0.509,0.5-0.866v-12.36C82.477,39.602,82.286,39.271,81.977,39.093z   M72.977,35.463c0,0.433-1.361,1.445-4,1.445s-4-1.013-4-1.445c0-0.51,1.519-1.445,4-1.445  C71.457,34.018,72.977,34.953,72.977,35.463z M72.977,38.069v2.562c0,0.433-1.361,1.445-4,1.445s-4-1.013-4-1.445v-2.562  c1.047,0.525,2.433,0.839,4,0.839C70.543,38.908,71.93,38.595,72.977,38.069z M55.954,26.501c2.481,0,4.001,0.936,4.001,1.445  c0,0.433-1.361,1.445-4.001,1.445c-2.639,0-3.999-1.013-3.999-1.445C51.955,27.437,53.473,26.501,55.954,26.501z M51.955,30.553  c1.047,0.525,2.432,0.839,3.999,0.839s2.954-0.313,4.001-0.84v2.563c0,0.433-1.361,1.445-4.001,1.445  c-2.639,0-3.999-1.013-3.999-1.445V30.553z M43.318,33.606c2.482,0,4.001,0.936,4.001,1.445c0,0.496-1.558,1.445-4.001,1.445  c-2.441,0-3.999-0.949-3.999-1.445C39.319,34.542,40.838,33.606,43.318,33.606z M39.319,37.658c1.047,0.525,2.433,0.839,3.999,0.839  c1.568,0,2.954-0.313,4.001-0.84v2.563c0,0.496-1.558,1.445-4.001,1.445c-2.441,0-3.999-0.949-3.999-1.445V37.658z M30.684,40.711  c2.481,0,4,0.936,4,1.445c0,0.433-1.36,1.445-4,1.445c-2.639,0-4-1.013-4-1.445C26.684,41.646,28.203,40.711,30.684,40.711z   M26.684,44.763c1.047,0.525,2.434,0.839,4,0.839c1.567,0,2.953-0.313,4-0.839v2.562c0,0.433-1.36,1.445-4,1.445  c-2.639,0-4-1.013-4-1.445V44.763z M42.059,72.767l-22.535-13.01V49.706l14.744,8.512l7.791,4.498V72.767z M43.06,60.983  l-22.536-13.01l4.16-2.402v1.753c0,1.964,2.58,3.445,6,3.445c3.421,0,6-1.481,6-3.445v-5.168c0-0.999-0.668-1.871-1.773-2.489  l2.409-1.391v1.943c0,1.964,2.579,3.445,5.999,3.445c3.422,0,6.001-1.481,6.001-3.445v-5.168c0-1.049-0.741-1.957-1.948-2.579  l2.584-1.491v2.133c0,1.964,2.578,3.445,5.999,3.445s6.001-1.481,6.001-3.445v-3.271l4.354,2.514  c-2.006,0.545-3.332,1.7-3.332,3.106v5.168c0,1.964,2.579,3.445,6,3.445c3.42,0,6-1.481,6-3.445v-3.27l4.5,2.598L43.06,60.983z   M80.477,51.742L44.06,72.767V62.716l24.114-13.922l12.303-7.103V51.742z M43.705,46.228c-3.42,0-5.999,1.481-5.999,3.445v5.168  c0,1.964,2.579,3.445,5.999,3.445c3.422,0,6.001-1.481,6.001-3.445v-5.168C49.706,47.709,47.127,46.228,43.705,46.228z   M47.706,54.841c0,0.433-1.36,1.445-4.001,1.445c-2.639,0-3.999-1.013-3.999-1.445v-2.562c1.047,0.525,2.433,0.839,3.999,0.839  c1.568,0,2.954-0.313,4.001-0.84V54.841z M43.705,51.118c-2.639,0-3.999-1.013-3.999-1.445c0-0.51,1.519-1.445,3.999-1.445  c2.482,0,4.001,0.936,4.001,1.445C47.706,50.105,46.346,51.118,43.705,51.118z M56.341,39.122c-3.421,0-5.999,1.481-5.999,3.445  v5.168c0,1.964,2.578,3.445,5.999,3.445s6.001-1.481,6.001-3.445v-5.168C62.342,40.604,59.762,39.122,56.341,39.122z M60.342,47.735  c0,0.51-1.52,1.445-4.001,1.445s-3.999-0.936-3.999-1.445v-2.562c1.047,0.525,2.432,0.839,3.999,0.839s2.954-0.313,4.001-0.84  V47.735z M56.341,44.013c-2.481,0-3.999-0.936-3.999-1.445s1.518-1.445,3.999-1.445s4.001,0.936,4.001,1.445  S58.822,44.013,56.341,44.013z"/><text x="0" y="115" fill="#000000" font-size="5px" font-weight="bold" font-family="'Helvetica Neue', Helvetica, Arial-Unicode, Arial, Sans-serif">Created by Sergey Demushkin</text><text x="0" y="120" fill="#000000" font-size="5px" font-weight="bold" font-family="'Helvetica Neue', Helvetica, Arial-Unicode, Arial, Sans-serif">from the Noun Project</text></svg>